<svg width="28" height="28" viewBox="0 0 28 28" fill="none" xmlns="http://www.w3.org/2000/svg">
<path d="M21.1128 0H6.88722C5.51582 0 4.40009 1.11579 4.40009 2.48719V23.7147C4.40009 25.0861 5.51582 26.2019 6.88722 26.2019H7.19615V27.1724C7.19615 27.6294 7.56671 28 8.02373 28C8.48076 28 8.85132 27.6294 8.85132 27.1724V26.2019H19.149V27.1724C19.149 27.6294 19.5196 28 19.9766 28C20.4336 28 20.8042 27.6294 20.8042 27.1724V26.2019H21.1128C22.4842 26.2019 23.5999 25.0861 23.5999 23.7147V2.48719C23.5999 1.11579 22.4841 0 21.1128 0ZM6.0552 2.48719C6.0552 2.02841 6.42845 1.65512 6.88722 1.65512H13.1726V19.5171H6.0552V2.48719ZM21.9448 23.7147C21.9448 24.1735 21.5715 24.5468 21.1128 24.5468H6.88722C6.42845 24.5468 6.0552 24.1735 6.0552 23.7147V21.1724H21.9447V23.7147H21.9448ZM21.9448 19.5172H14.8277V1.65517H21.1128C21.5715 1.65517 21.9448 2.02847 21.9448 2.48724V19.5172Z" fill="white"/>
<path d="M11.8027 8.61072C11.3457 8.61072 10.9752 8.98128 10.9752 9.4383V11.7341C10.9752 12.1911 11.3457 12.5617 11.8027 12.5617C12.2598 12.5617 12.6303 12.1911 12.6303 11.7341V9.4383C12.6303 8.98123 12.2598 8.61072 11.8027 8.61072Z" fill="white"/>
<path d="M16.1976 8.61072C15.7406 8.61072 15.3701 8.98128 15.3701 9.4383V11.7341C15.3701 12.1912 15.7406 12.5617 16.1976 12.5617C16.6547 12.5617 17.0252 12.1912 17.0252 11.7341V9.4383C17.0252 8.98123 16.6547 8.61072 16.1976 8.61072Z" fill="white"/>
<path d="M14.9379 22.032H13.0621C12.6051 22.032 12.2345 22.4025 12.2345 22.8596C12.2345 23.3166 12.6051 23.6872 13.0621 23.6872H14.9379C15.3949 23.6872 15.7655 23.3166 15.7655 22.8596C15.7654 22.4025 15.3949 22.032 14.9379 22.032Z" fill="white"/>
</svg>
