<svg width="28" height="28" viewBox="0 0 28 28" fill="none" xmlns="http://www.w3.org/2000/svg">
<g clip-path="url(#clip0)">
<path d="M26.5299 18.912L14.8203 12.1263V11.6214C14.8203 11.0457 15.1489 10.5101 15.6778 10.2238C16.8695 9.57875 17.5778 8.3363 17.5264 6.98136C17.4569 5.14982 15.9679 3.66057 14.1367 3.59107C13.1678 3.55388 12.2502 3.90366 11.5529 4.57484C10.8552 5.24651 10.471 6.14973 10.471 7.11803C10.471 7.57106 10.8382 7.93834 11.2913 7.93834C11.7443 7.93834 12.1116 7.57106 12.1116 7.11803C12.1116 6.5997 12.3173 6.11632 12.6907 5.75675C13.0638 5.39767 13.5546 5.21025 14.0744 5.23049C15.0536 5.26768 15.8498 6.06409 15.887 7.0436C15.9146 7.76968 15.5351 8.43539 14.8969 8.78096C13.8377 9.35431 13.1797 10.4427 13.1797 11.6214V12.1263L1.47005 18.912C0.563281 19.4375 0 20.4151 0 21.4632C0 23.089 1.32245 24.4116 2.94798 24.4116H25.052C26.6775 24.4116 28 23.0889 28 21.4632C28 20.415 27.4367 19.4375 26.5299 18.912ZM25.052 22.771H2.94798C2.22709 22.771 1.64062 22.1843 1.64062 21.4632C1.64062 20.9982 1.89044 20.5646 2.29266 20.3316L14 13.5472L25.7073 20.3316C26.1095 20.5646 26.3594 20.9982 26.3594 21.4632C26.3594 22.1843 25.7729 22.771 25.052 22.771Z" fill="white"/>
</g>
<defs>
<clipPath id="clip0">
<rect width="28" height="28" fill="white"/>
</clipPath>
</defs>
</svg>
