<svg width="28" height="28" viewBox="0 0 28 28" fill="none" xmlns="http://www.w3.org/2000/svg">
<path d="M27.1797 17.2812C26.4851 17.2812 19.5718 17.2812 18.1562 17.2812V15.6406H23.8984C24.3515 15.6406 24.7188 15.2733 24.7188 14.8203V3.33594C24.7188 2.88291 24.3515 2.51562 23.8984 2.51562H4.10156C3.64853 2.51562 3.28125 2.88291 3.28125 3.33594V14.8203C3.28125 15.2733 3.64853 15.6406 4.10156 15.6406H9.84375V17.2812C9.00648 17.2812 1.95557 17.2812 0.820312 17.2812C0.367281 17.2812 0 17.6485 0 18.1016V24.6641C0 25.1171 0.367281 25.4844 0.820312 25.4844H7.38281C7.83584 25.4844 8.20312 25.1171 8.20312 24.6641V22.2031H19.7969V24.6641C19.7969 25.1171 20.1642 25.4844 20.6172 25.4844H27.1797C27.6327 25.4844 28 25.1171 28 24.6641V18.1016C28 17.6485 27.6327 17.2812 27.1797 17.2812ZM4.92188 4.15625H23.0781V14H4.92188V4.15625ZM11.4844 15.6406H16.5156V17.2812H11.4844V15.6406ZM6.5625 23.8438H1.64062V18.9219H6.5625V23.8438ZM8.20312 20.5625V18.9219H19.7969V20.5625H8.20312ZM26.3594 23.8438H21.4375V18.9219H26.3594V23.8438Z" fill="white"/>
<path d="M4.10156 22.2031C4.55461 22.2031 4.92188 21.8359 4.92188 21.3828C4.92188 20.9298 4.55461 20.5625 4.10156 20.5625C3.64852 20.5625 3.28125 20.9298 3.28125 21.3828C3.28125 21.8359 3.64852 22.2031 4.10156 22.2031Z" fill="white"/>
<path d="M23.8984 22.2031C24.3515 22.2031 24.7188 21.8359 24.7188 21.3828C24.7188 20.9298 24.3515 20.5625 23.8984 20.5625C23.4454 20.5625 23.0781 20.9298 23.0781 21.3828C23.0781 21.8359 23.4454 22.2031 23.8984 22.2031Z" fill="white"/>
</svg>
