<svg width="42" height="42" viewBox="0 0 42 42" fill="none" xmlns="http://www.w3.org/2000/svg">
<mask id="mask0" mask-type="alpha" maskUnits="userSpaceOnUse" x="0" y="0" width="42" height="42">
<path fill-rule="evenodd" clip-rule="evenodd" d="M0 21C0 9.40202 9.40202 0 21 0C32.598 0 42 9.40202 42 21C42 32.598 32.598 42 21 42C9.40202 42 0 32.598 0 21Z" fill="white"/>
</mask>
<g mask="url(#mask0)">
<path fill-rule="evenodd" clip-rule="evenodd" d="M0 21C0 9.40202 9.40202 0 21 0C32.598 0 42 9.40202 42 21C42 32.598 32.598 42 21 42C9.40202 42 0 32.598 0 21Z" fill="#359C31"/>
<path fill-rule="evenodd" clip-rule="evenodd" d="M21.0005 9.79956C17.9587 9.79956 17.577 9.81286 16.3823 9.86723C15.19 9.92183 14.3761 10.1106 13.664 10.3876C12.9273 10.6736 12.3024 11.0563 11.6799 11.6791C11.0569 12.3016 10.6742 12.9265 10.3872 13.6629C10.1096 14.3753 9.92056 15.1894 9.86689 16.3813C9.81345 17.5759 9.79945 17.9579 9.79945 20.9997C9.79945 24.0414 9.81299 24.422 9.86712 25.6167C9.92196 26.809 10.1107 27.6229 10.3875 28.3351C10.6738 29.0717 11.0564 29.6966 11.6792 30.3191C12.3015 30.9421 12.9264 31.3257 13.6626 31.6118C14.3752 31.8888 15.1893 32.0775 16.3814 32.1321C17.5761 32.1865 17.9576 32.1998 20.9991 32.1998C24.0411 32.1998 24.4217 32.1865 25.6164 32.1321C26.8087 32.0775 27.6235 31.8888 28.3361 31.6118C29.0725 31.3257 29.6965 30.9421 30.3188 30.3191C30.9418 29.6966 31.3244 29.0717 31.6114 28.3353C31.8868 27.6229 32.0758 26.8088 32.1318 25.6169C32.1855 24.4222 32.1995 24.0414 32.1995 20.9997C32.1995 17.9579 32.1855 17.5762 32.1318 16.3815C32.0758 15.1891 31.8868 14.3753 31.6114 13.6631C31.3244 12.9265 30.9418 12.3016 30.3188 11.6791C29.6958 11.0561 29.0728 10.6734 28.3354 10.3876C27.6214 10.1106 26.8071 9.92183 25.6147 9.86723C24.42 9.81286 24.0397 9.79956 20.997 9.79956H21.0005ZM19.9983 11.8193C20.2965 11.8188 20.6293 11.8193 21.0031 11.8193C23.9935 11.8193 24.348 11.83 25.5289 11.8837C26.6209 11.9336 27.2136 12.1161 27.6084 12.2694C28.131 12.4724 28.5037 12.7151 28.8954 13.1071C29.2874 13.4991 29.5301 13.8724 29.7336 14.3951C29.8869 14.7894 30.0696 15.3821 30.1193 16.4741C30.173 17.6548 30.1846 18.0095 30.1846 20.9985C30.1846 23.9875 30.173 24.3422 30.1193 25.5229C30.0693 26.6149 29.8869 27.2076 29.7336 27.6019C29.5306 28.1246 29.2874 28.4968 28.8954 28.8885C28.5034 29.2805 28.1313 29.5232 27.6084 29.7262C27.214 29.8802 26.6209 30.0622 25.5289 30.1121C24.3482 30.1658 23.9935 30.1775 21.0031 30.1775C18.0124 30.1775 17.658 30.1658 16.4773 30.1121C15.3853 30.0617 14.7926 29.8793 14.3976 29.726C13.8749 29.523 13.5016 29.2803 13.1096 28.8883C12.7176 28.4963 12.4749 28.1239 12.2714 27.601C12.1181 27.2066 11.9354 26.614 11.8857 25.522C11.8321 24.3413 11.8213 23.9866 11.8213 20.9957C11.8213 18.0048 11.8321 17.652 11.8857 16.4713C11.9357 15.3793 12.1181 14.7866 12.2714 14.3918C12.4744 13.8692 12.7176 13.4958 13.1096 13.1038C13.5016 12.7118 13.8749 12.4692 14.3976 12.2657C14.7924 12.1117 15.3853 11.9297 16.4773 11.8795C17.5105 11.8328 17.9109 11.8188 19.9983 11.8165V11.8193ZM26.9794 13.6807C26.2374 13.6807 25.6354 14.282 25.6354 15.0243C25.6354 15.7663 26.2374 16.3683 26.9794 16.3683C27.7214 16.3683 28.3234 15.7663 28.3234 15.0243C28.3234 14.2823 27.7214 13.6803 26.9794 13.6803V13.6807ZM21.002 15.2487C17.8256 15.2487 15.2502 17.824 15.2502 21.0004C15.2502 24.1768 17.8256 26.751 21.002 26.751C24.1784 26.751 26.7528 24.1768 26.7528 21.0004C26.7528 17.824 24.1781 15.2487 21.0017 15.2487H21.002ZM21.0016 17.2683C23.0633 17.2683 24.7349 18.9397 24.7349 21.0017C24.7349 23.0634 23.0633 24.7351 21.0016 24.7351C18.9396 24.7351 17.2682 23.0634 17.2682 21.0017C17.2682 18.9397 18.9396 17.2683 21.0016 17.2683Z" fill="white"/>
</g>
</svg>
