<svg width="28" height="28" viewBox="0 0 28 28" fill="none" xmlns="http://www.w3.org/2000/svg">
<path d="M27.1797 14.875C25.9042 14.875 18.4519 14.875 17.2843 14.875C17.5735 14.3608 17.789 13.8095 17.926 13.2344H20.5625C21.0155 13.2344 21.3828 12.8671 21.3828 12.4141V9.13281C21.3828 8.67978 21.0155 8.3125 20.5625 8.3125H18.1016V7.38281C18.1016 6.92978 17.7343 6.5625 17.2812 6.5625H10.7188C10.2657 6.5625 9.89844 6.92978 9.89844 7.38281V11.7345C9.89844 12.8524 10.1824 13.9266 10.7157 14.875C9.54805 14.875 2.09743 14.875 0.820312 14.875C0.367281 14.875 0 15.2423 0 15.6953C0 16.1483 0.367281 16.5156 0.820312 16.5156H6.30345C4.4164 18.4807 3.33594 21.1113 3.33594 23.8984V27.1797C3.33594 27.6327 3.70322 28 4.15625 28H7.4375C7.89053 28 8.25781 27.6327 8.25781 27.1797V24.7188H19.7422V27.1797C19.7422 27.6327 20.1095 28 20.5625 28H23.8438C24.2968 28 24.6641 27.6327 24.6641 27.1797V23.8984C24.6641 21.1113 23.5836 18.4807 21.6966 16.5156H27.1797C27.6327 16.5156 28 16.1483 28 15.6953C28 15.2423 27.6327 14.875 27.1797 14.875ZM19.7422 9.95312V11.5938H18.1016V9.95312H19.7422ZM11.5391 11.7345V8.20312H16.4609V11.7345C16.4609 12.9014 16.0457 14.0045 15.2852 14.875H12.7148C11.9543 14.0045 11.5391 12.9014 11.5391 11.7345ZM8.31934 23.0781C8.50412 21.8448 9.10071 20.6895 10.0247 19.7969H17.9752C18.8992 20.6895 19.4958 21.8448 19.6806 23.0781H8.31934ZM23.0234 23.8984V26.3594H21.3828V23.8984C21.3828 21.7928 20.4539 19.7737 18.8342 18.3588C18.6847 18.2282 18.493 18.1562 18.2945 18.1562H9.7055C9.50704 18.1562 9.31525 18.2282 9.16584 18.3588C7.54611 19.7737 6.61719 21.7928 6.61719 23.8984V26.3594H4.97656V23.8984C4.97656 20.9501 6.40577 18.2086 8.81131 16.5156H19.1887C21.5942 18.2086 23.0234 20.9501 23.0234 23.8984Z" fill="white"/>
<path d="M21.3828 0.820312C21.3828 1.27263 21.0148 1.64062 20.5625 1.64062H15.6406C14.2837 1.64062 13.1797 2.7446 13.1797 4.10156C13.1797 4.55459 13.547 4.92188 14 4.92188C14.453 4.92188 14.8203 4.55459 14.8203 4.10156C14.8203 3.64924 15.1883 3.28125 15.6406 3.28125H20.5625C21.9195 3.28125 23.0234 2.17727 23.0234 0.820312C23.0234 0.367281 22.6562 0 22.2031 0C21.7501 0 21.3828 0.367281 21.3828 0.820312Z" fill="white"/>
</svg>
