<svg width="28" height="28" viewBox="0 0 28 28" fill="none" xmlns="http://www.w3.org/2000/svg">
<path d="M27.1797 4.48438H16.2422C15.7892 4.48438 15.4219 4.85166 15.4219 5.30469V13.2344H0.820312C0.367281 13.2344 0 13.6017 0 14.0547V27.1797C0 27.6327 0.367281 28 0.820312 28H27.1797C27.6327 28 28 27.6327 28 27.1797V5.30469C28 4.85166 27.6327 4.48438 27.1797 4.48438ZM17.0625 6.125H26.3594V13.2344H17.0625V6.125ZM1.64062 14.875H15.4219V16.5156H1.64062V14.875ZM1.64062 18.1562H11.0469V26.3594H1.64062V18.1562ZM12.6875 18.1562H15.4219V26.3594H12.6875V18.1562ZM17.0625 26.3594V14.875H26.3594V26.3594H17.0625Z" fill="white"/>
<path d="M0.820312 10.9375H12.8516C13.3046 10.9375 13.6719 10.5702 13.6719 10.1172V7.92969C13.6719 7.69021 13.5672 7.46271 13.3854 7.30685L9.84375 4.27115V0.820312C9.84375 0.367281 9.47647 0 9.02344 0H4.64844C4.19541 0 3.82812 0.367281 3.82812 0.820312V4.27115L0.286453 7.30685C0.104672 7.46271 0 7.69021 0 7.92969V10.1172C0 10.5702 0.367281 10.9375 0.820312 10.9375ZM5.46875 1.64062H8.20312V3.82812H5.46875V1.64062ZM1.64062 8.30698L4.9519 5.46875H8.71998L12.0312 8.30698V9.29688H1.64062V8.30698Z" fill="white"/>
<path d="M19.5234 8.3125C19.0704 8.3125 18.7031 8.67978 18.7031 9.13281V10.7734C18.7031 11.2265 19.0704 11.5938 19.5234 11.5938C19.9765 11.5938 20.3438 11.2265 20.3438 10.7734V9.13281C20.3438 8.67978 19.9765 8.3125 19.5234 8.3125Z" fill="white"/>
<path d="M19.5234 16.5156C19.0704 16.5156 18.7031 16.8829 18.7031 17.3359V18.9766C18.7031 19.4296 19.0704 19.7969 19.5234 19.7969C19.9765 19.7969 20.3438 19.4296 20.3438 18.9766V17.3359C20.3438 16.8829 19.9765 16.5156 19.5234 16.5156Z" fill="white"/>
<path d="M8.58594 20.6172C8.13291 20.6172 7.76562 20.9845 7.76562 21.4375V23.0781C7.76562 23.5312 8.13291 23.8984 8.58594 23.8984C9.03897 23.8984 9.40625 23.5312 9.40625 23.0781V21.4375C9.40625 20.9845 9.03897 20.6172 8.58594 20.6172Z" fill="white"/>
</svg>
