<svg width="80" height="40" viewBox="0 0 80 40" fill="none" xmlns="http://www.w3.org/2000/svg">
<path d="M12.0803 39.8002L12.0605 32.2727L8.39078 38.4789H7.10142L3.43169 32.4128V39.8002H0.733948V27.2076H3.11431L7.79569 35.0354L12.3977 27.2076H14.7781L14.7979 39.8002H12.0803Z" fill="#359C31"/>
<path d="M27.5527 37.4575V39.7998H17.8924V27.2073H27.3147V29.5496H20.7687V32.2723H26.5609V34.5346H20.7687V37.4375H27.5527V37.4575Z" fill="#359C31"/>
<path d="M29.8735 27.2073H39.9305V29.5296H32.7299V32.1122H36.1814C39.1966 32.1122 40.8033 33.4135 40.8033 35.8159C40.8033 38.3384 38.9784 39.7798 35.7649 39.7798H29.8536V27.2073H29.8735ZM35.626 37.6377C37.1137 37.6377 37.9072 37.0371 37.9072 35.916C37.9072 34.7948 37.1336 34.2543 35.626 34.2543H32.7497V37.6377H35.626Z" fill="#359C31"/>
<path d="M52.6655 37.4575V39.7998H43.0052V27.2073H52.4275V29.5496H45.8815V32.2723H51.6737V34.5346H45.8815V37.4375H52.6655V37.4575Z" fill="#359C31"/>
<path d="M66.7097 27.2073V39.7998H63.8731V29.5897H59.6083L59.5289 32.2123C59.3702 37.1572 58.676 40 55.76 40C55.3236 40 54.8674 39.92 54.3318 39.7998L54.5103 37.3374C54.6888 37.3974 54.8475 37.4175 55.0261 37.4175C56.494 37.4175 56.851 35.5556 56.9899 32.3324L57.1684 27.2273H66.7097V27.2073Z" fill="#359C31"/>
<path d="M80 35.4155C80 38.3184 78.0759 39.7998 74.8624 39.7998H69.2289V27.2073H72.1052V31.3514H75.279C78.2941 31.3514 80 32.6927 80 35.4155ZM77.0841 35.4555C77.0841 34.0741 76.1914 33.4935 74.7037 33.4935H72.1052V37.6377H74.7037C76.1914 37.6377 77.0841 36.8769 77.0841 35.4555Z" fill="#359C31"/>
<path d="M31.8373 2.66266L28.961 6.68667L26.7591 7.04703L25.807 8.40839C25.4301 8.14813 25.0334 7.90789 24.597 7.70769L25.6483 6.22621L25.2913 4.00399L28.1874 0L29.1593 2.52252L31.8373 2.66266Z" fill="#359C31"/>
<path d="M12.358 9.92999H7.79569V21.6016H4.54252V9.92999H0V7.20728H12.358V9.92999Z" fill="white"/>
<path d="M25.807 8.4285L24.0614 10.951C24.9541 11.7718 25.4896 12.973 25.4896 14.4145C25.4896 17.1572 23.5655 19.0191 21.0265 19.0191C18.4874 19.0191 16.5633 17.1572 16.5633 14.4145C16.5633 11.6717 18.4874 9.80988 21.0265 9.80988C21.6811 9.80988 22.296 9.93 22.8514 10.1702L24.597 7.7278C23.5457 7.24732 22.3357 6.96704 21.0265 6.96704C16.5236 6.96704 13.2308 10.1302 13.2308 14.4145C13.2308 18.6987 16.5236 21.8619 21.0265 21.8619C25.5095 21.8619 28.8221 18.7188 28.8221 14.4145C28.8221 11.8719 27.6716 9.74982 25.807 8.4285Z" fill="#359C31"/>
<path d="M42.787 7.20728V21.6016H39.5338V16.4165C38.2841 16.8769 37.1535 17.0971 36.1021 17.0971C32.2737 17.0971 30.1711 15.1952 30.1711 11.7118V7.20728H33.4242V11.3314C33.4242 13.3134 34.4954 14.3144 36.479 14.3144C37.5502 14.3144 38.6214 14.0941 39.5338 13.6737V7.20728H42.787Z" fill="white"/>
<path d="M59.39 7.20728V21.6016H56.0971V15.6957H49.6305V21.6016H46.3376V7.20728H49.6305V12.8729H56.0971V7.20728H59.39Z" fill="white"/>
<path d="M61.9489 14.4145C61.9489 10.1302 65.2418 6.96704 69.7446 6.96704C74.2276 6.96704 77.5403 10.1102 77.5403 14.4145C77.5403 18.7188 74.2276 21.8619 69.7446 21.8619C65.2616 21.8419 61.9489 18.6787 61.9489 14.4145ZM74.2078 14.4145C74.2078 11.6717 72.3035 9.80988 69.7446 9.80988C67.1857 9.80988 65.2814 11.6717 65.2814 14.4145C65.2814 17.1572 67.1857 19.0191 69.7446 19.0191C72.3035 19.0191 74.2078 17.1372 74.2078 14.4145Z" fill="white"/>
<path d="M21.0286 15.9876C21.9312 15.9876 22.6629 15.2818 22.6629 14.411C22.6629 13.5402 21.9312 12.8344 21.0286 12.8344C20.126 12.8344 19.3943 13.5402 19.3943 14.411C19.3943 15.2818 20.126 15.9876 21.0286 15.9876Z" fill="white"/>
</svg>
