<svg width="140" height="70" viewBox="0 0 140 70" fill="none" xmlns="http://www.w3.org/2000/svg">
<path d="M21.1406 69.6506L21.1059 56.4774L14.6839 67.3383H12.4275L6.00548 56.7226V69.6506H1.28442V47.6135H5.45006L13.6425 61.3122L21.696 47.6135H25.8617L25.8964 69.6506H21.1406Z" fill="#359C31"/>
<path d="M48.2173 65.5507V69.6498H31.3118V47.6128H47.8007V51.7119H36.3452V56.4767H46.4816V60.4356H36.3452V65.5157H48.2173V65.5507Z" fill="#359C31"/>
<path d="M52.2789 47.6128H69.8787V51.6769H57.2776V56.1964H63.3178C68.5943 56.1964 71.4061 58.4737 71.4061 62.6779C71.4061 67.0923 68.2124 69.6148 62.5888 69.6148H52.2441V47.6128H52.2789ZM62.3458 65.8661C64.9493 65.8661 66.3379 64.815 66.3379 62.853C66.3379 60.8911 64.984 59.9451 62.3458 59.9451H57.3123V65.8661H62.3458Z" fill="#359C31"/>
<path d="M92.1648 65.5507V69.6498H75.2593V47.6128H91.7482V51.7119H80.2928V56.4767H90.4291V60.4356H80.2928V65.5157H92.1648V65.5507Z" fill="#359C31"/>
<path d="M116.742 47.6128V69.6498H111.778V51.782H104.314L104.176 56.3716C103.898 65.0252 102.683 70.0002 97.58 70.0002C96.8163 70.0002 96.0178 69.8601 95.0806 69.6498L95.393 65.3405C95.7054 65.4456 95.9831 65.4807 96.2955 65.4807C98.8644 65.4807 99.4892 62.2224 99.7322 56.5818L100.045 47.6478H116.742V47.6128Z" fill="#359C31"/>
<path d="M140 61.9772C140 67.0572 136.633 69.6498 131.009 69.6498H121.151V47.6128H126.184V54.8651H131.738C137.015 54.8651 140 57.2124 140 61.9772ZM134.897 62.0472C134.897 59.6298 133.335 58.6138 130.732 58.6138H126.184V65.8661H130.732C133.335 65.8661 134.897 64.5347 134.897 62.0472Z" fill="#359C31"/>
<path d="M55.7154 4.65966L50.6819 11.7017L46.8287 12.3323L45.1625 14.7147C44.5029 14.2593 43.8086 13.8388 43.0449 13.4885L44.8847 10.8959L44.2599 7.00701L49.3281 0L51.0291 4.41442L55.7154 4.65966Z" fill="#359C31"/>
<path d="M21.6266 17.3776H13.6425V37.803H7.94942V17.3776H0V12.6128H21.6266V17.3776Z" fill="#1A1A1A"/>
<path d="M45.1625 14.7498L42.1077 19.1642C43.6698 20.6007 44.6071 22.7028 44.6071 25.2253C44.6071 30.0251 41.2398 33.2834 36.7965 33.2834C32.3532 33.2834 28.9859 30.0251 28.9859 25.2253C28.9859 20.4255 32.3532 17.1672 36.7965 17.1672C37.9421 17.1672 39.0182 17.3774 39.9902 17.7979L43.045 13.5236C41.2051 12.6828 39.0876 12.1923 36.7965 12.1923C28.9165 12.1923 23.1541 17.7278 23.1541 25.2253C23.1541 32.7228 28.9165 38.2583 36.7965 38.2583C44.6418 38.2583 50.439 32.7578 50.439 25.2253C50.439 20.7758 48.4256 17.0621 45.1625 14.7498Z" fill="#359C31"/>
<path d="M74.8772 12.6128V37.803H69.1841V28.7289C66.9972 29.5347 65.0185 29.9201 63.1787 29.9201C56.479 29.9201 52.7993 26.5918 52.7993 20.4957V12.6128H58.4923V19.83C58.4923 23.2985 60.3669 25.0502 63.8382 25.0502C65.7128 25.0502 67.5873 24.6649 69.1841 23.9291V12.6128H74.8772Z" fill="#1A1A1A"/>
<path d="M103.933 12.6128V37.803H98.1702V27.4677H86.8535V37.803H81.0911V12.6128H86.8535V22.5277H98.1702V12.6128H103.933Z" fill="#1A1A1A"/>
<path d="M108.411 25.2253C108.411 17.7278 114.173 12.1923 122.053 12.1923C129.898 12.1923 135.696 17.6928 135.696 25.2253C135.696 32.7578 129.898 38.2583 122.053 38.2583C114.208 38.2233 108.411 32.6878 108.411 25.2253ZM129.864 25.2253C129.864 20.4255 126.531 17.1672 122.053 17.1672C117.575 17.1672 114.243 20.4255 114.243 25.2253C114.243 30.0251 117.575 33.2834 122.053 33.2834C126.531 33.2834 129.864 29.9901 129.864 25.2253Z" fill="#1A1A1A"/>
<path d="M36.7999 27.9784C38.3795 27.9784 39.6599 26.743 39.6599 25.2192C39.6599 23.6954 38.3795 22.4601 36.7999 22.4601C35.2204 22.4601 33.9399 23.6954 33.9399 25.2192C33.9399 26.743 35.2204 27.9784 36.7999 27.9784Z" fill="#1A1A1A"/>
</svg>
