<svg width="28" height="28" viewBox="0 0 28 28" fill="none" xmlns="http://www.w3.org/2000/svg">
<path d="M25.5391 9.89844C24.6589 9.89844 23.8244 10.0978 23.0781 10.4532V9.07812C23.0781 5.91188 20.5022 3.33594 17.3359 3.33594H10.6641C7.49782 3.33594 4.92188 5.91188 4.92188 9.07812V10.4532C4.17555 10.0978 3.34113 9.89844 2.46094 9.89844C1.10398 9.89844 0 11.0024 0 12.3594C0 13.7163 1.10398 14.8203 2.46094 14.8203C2.91326 14.8203 3.28125 15.1883 3.28125 15.6406V22.2031C3.28125 22.6562 3.64853 23.0234 4.10156 23.0234H4.92188V23.8438C4.92188 24.2968 5.28916 24.6641 5.74219 24.6641C6.19522 24.6641 6.5625 24.2968 6.5625 23.8438V23.0234H21.4375V23.8438C21.4375 24.2968 21.8048 24.6641 22.2578 24.6641C22.7108 24.6641 23.0781 24.2968 23.0781 23.8438V23.0234H23.8984C24.3515 23.0234 24.7188 22.6562 24.7188 22.2031V15.6406C24.7188 15.1883 25.0867 14.8203 25.5391 14.8203C26.896 14.8203 28 13.7163 28 12.3594C28 11.0024 26.896 9.89844 25.5391 9.89844ZM10.6641 4.97656H17.3359C19.5975 4.97656 21.4375 6.81652 21.4375 9.07812V11.6263C20.9952 12.0782 20.6266 12.6025 20.3517 13.1797H7.64832C7.37335 12.6025 7.00481 12.0782 6.5625 11.6263V9.07812C6.5625 6.81652 8.40246 4.97656 10.6641 4.97656ZM19.7969 15.6406V16.4609H8.20312V15.6406C8.20312 15.3621 8.18278 15.0883 8.14428 14.8203H19.8557C19.8172 15.0883 19.7969 15.3621 19.7969 15.6406ZM8.20312 18.1016H19.7969V21.3828H8.20312V18.1016ZM2.46094 13.1797C2.00862 13.1797 1.64062 12.8117 1.64062 12.3594C1.64062 11.9071 2.00862 11.5391 2.46094 11.5391C4.72254 11.5391 6.5625 13.379 6.5625 15.6406V21.3828H4.92188V15.6406C4.92188 14.2837 3.8179 13.1797 2.46094 13.1797ZM25.5391 13.1797C24.1821 13.1797 23.0781 14.2837 23.0781 15.6406V21.3828H21.4375V15.6406C21.4375 13.379 23.2775 11.5391 25.5391 11.5391C25.9914 11.5391 26.3594 11.9071 26.3594 12.3594C26.3594 12.8117 25.9914 13.1797 25.5391 13.1797Z" fill="white"/>
</svg>
